HIERARCHY
ROOT Hips
{
  OFFSET 64.5218 85.4725 9.03893
  CHANNELS 6 Xposition Yposition Zposition Zrotation Xrotation Yrotation
  JOINT spine
  {
    OFFSET 0 6.3926 0.367606
    CHANNELS 3 Zrotation Xrotation Yrotation
    JOINT spine1
    {
      OFFSET 0 9.17611 0
      CHANNELS 3 Zrotation Xrotation Yrotation
      JOINT spine2
      {
        OFFSET 0 8.79238 0
        CHANNELS 3 Zrotation Xrotation Yrotation
        JOINT Neck
        {
          OFFSET 0 22.5737 1.07624
          CHANNELS 3 Zrotation Xrotation Yrotation
          JOINT Head
          {
            OFFSET 0 6.82011 0
            CHANNELS 3 Zrotation Xrotation Yrotation
            End Site
            {
              OFFSET 0 16.5085 -5.44427
            }
          }
        }
        JOINT RightShoulder
        {
          OFFSET -3.70221 9.49509 -0.515508
          CHANNELS 3 Zrotation Xrotation Yrotation
          JOINT RightArm
          {
            OFFSET 0 12.4537 0
            CHANNELS 3 Zrotation Xrotation Yrotation
            JOINT RightArmRoll
            {
              OFFSET 0 6.28686 0
              CHANNELS 3 Zrotation Xrotation Yrotation
              JOINT RightForeArm
              {
                OFFSET 0 18.3114 0
                CHANNELS 3 Zrotation Xrotation Yrotation
                JOINT RightForeArmRoll
                {
                  OFFSET 0 7.05482 0
                  CHANNELS 3 Zrotation Xrotation Yrotation
                  JOINT RightHand
                  {
                    OFFSET 0 14.1575 0
                    CHANNELS 3 Zrotation Xrotation Yrotation
                    End Site
                    {
                      OFFSET 0 0 0
                    }
                  }
                }
              }
            }
          }
        }
        JOINT LeftShoulder
        {
          OFFSET 3.70221 9.49509 -0.515508
          CHANNELS 3 Zrotation Xrotation Yrotation
          JOINT LeftArm
          {
            OFFSET 0 12.4537 0
            CHANNELS 3 Zrotation Xrotation Yrotation
            JOINT LeftArmRoll
            {
              OFFSET 0 6.28686 0
              CHANNELS 3 Zrotation Xrotation Yrotation
              JOINT LeftForeArm
              {
                OFFSET 0 18.3114 0
                CHANNELS 3 Zrotation Xrotation Yrotation
                JOINT LeftForeArmRoll
                {
                  OFFSET 0 7.05482 0
                  CHANNELS 3 Zrotation Xrotation Yrotation
                  JOINT LeftHand
                  {
                    OFFSET 0 14.1575 0
                    CHANNELS 3 Zrotation Xrotation Yrotation
                    End Site
                    {
                      OFFSET 0 0 0
                    }
                  }
                }
              }
            }
          }
        }
      }
    }
  }
  JOINT RightUpLeg
  {
    OFFSET -5.66616 -1.03903 -0.87161
    CHANNELS 3 Zrotation Xrotation Yrotation
    JOINT RightUpLegRoll
    {
      OFFSET 0 16.6005 0
      CHANNELS 3 Zrotation Xrotation Yrotation
      JOINT RightLeg
      {
        OFFSET 0 -20.5572 0
        CHANNELS 3 Zrotation Xrotation Yrotation
        JOINT RightLegRoll
        {
          OFFSET 0 20.6244 0
          CHANNELS 3 Zrotation Xrotation Yrotation
          JOINT RightFoot
          {
            OFFSET 0 17.1664 0
            CHANNELS 3 Zrotation Xrotation Yrotation
            JOINT RightToeBase
            {
              OFFSET 0 14.3502 0
              CHANNELS 3 Zrotation Xrotation Yrotation
              End Site
              {
                OFFSET 0.00608252 6.94971 -0.80106
              }
            }
          }
        }
      }
    }
  }
  JOINT LeftUpLeg
  {
    OFFSET 5.66616 -1.03903 -0.87161
    CHANNELS 3 Zrotation Xrotation Yrotation
    JOINT LeftUpLegRoll
    {
      OFFSET 0 16.6006 0
      CHANNELS 3 Zrotation Xrotation Yrotation
      JOINT LeftLeg
      {
        OFFSET 0 20.5571 0
        CHANNELS 3 Zrotation Xrotation Yrotation
        JOINT LeftLegRoll
        {
          OFFSET 0 20.8151 0
          CHANNELS 3 Zrotation Xrotation Yrotation
          JOINT LeftFoot
          {
            OFFSET 0 16.9757 0
            CHANNELS 3 Zrotation Xrotation Yrotation
            JOINT LeftToeBase
            {
              OFFSET 0 14.3502 0
              CHANNELS 3 Zrotation Xrotation Yrotation
              End Site
              {
                OFFSET -0.0272592 6.9497 -0.801061
              }
            }
          }
        }
      }
    }
  }
}
MOTION
Frames: 13
Frame Time: 0.00208333
51.8461 85.987 16.2057 -2.04218 -4.34996 0.452448 0.176083 -0.890314 -0.0596737 0.334796 2.22973 -0.138684 0.336881 3.87479 -0.144305 -0.494198 6.83932 0.987668 1.37953 6.34859 0.911145 56.4652 -1.31945 -0.521719 112.155 14.7564 4.94119 1.69657e-006 -2.42126e-007 -3.55211e-006 12.6607 6.89783 -1.30612 -1.6755e-006 -4.01396e-006 -3 8.02886 -4.95144 0.697684 -53.3322 -2.63493 1.07812 -109.406 16.1862 0.515629 -2.74211e-006 1.99354e-008 2.83193e-006 -11.8957 5.20981 1.04953 2.26359e-006 -2.28516e-006 3.00021 -8.02886 -4.95146 -0.697686 176.102 -2.95185 0.557206 -180 7.01518e-015 178.802 177.305 5.22062 179.744 3.9617e-006 7.92054e-006 0.0426486 -18.6047 67.7208 19.3026 8.13275 25.2329 -3.47935 -172.305 -1.27333 -0.216045 4.54188e-006 -4.6773e-006 -1.1145 0.445841 -8.38089 0.763686 -2.80947e-006 -6.37821e-006 -0.151619 19.1516 69.8206 -21.1224 -8.13634 25.2327 3.48767 
51.8439 85.9864 16.1934 -2.04262 -4.34655 0.454927 0.175701 -0.891344 -0.0598352 0.336669 2.2271 -0.138948 0.338751 3.87217 -0.144499 -0.503822 6.84364 0.990959 1.39119 6.34698 0.912242 56.4622 -1.31387 -0.517808 112.162 14.7623 4.92449 1.69657e-006 -2.42126e-007 -3.55211e-006 12.6654 6.92324 -1.30958 -1.6755e-006 -4.01396e-006 -3 8.02886 -4.95144 0.697684 -53.3343 -2.62993 1.07488 -109.408 16.1899 0.532857 -2.74211e-006 1.99354e-008 2.83193e-006 -11.9044 5.244 1.05403 2.26359e-006 -2.28516e-006 3.00021 -8.02886 -4.95146 -0.697686 176.102 -2.94759 0.55814 -180 7.01518e-015 178.802 177.302 5.21961 179.745 3.9617e-006 7.92054e-006 0.0426486 -18.6057 67.722 19.3037 8.13275 25.2329 -3.47935 -172.3 -1.2913 -0.233499 4.54188e-006 -4.6773e-006 -1.11415 0.421181 -8.34874 0.759213 -2.80947e-006 -6.37821e-006 -0.147415 19.1092 69.7874 -21.0901 -8.13634 25.2327 3.48767 
51.8518 85.989 16.2012 -2.04313 -4.34298 0.457367 0.17529 -0.892414 -0.0600119 0.338574 2.22438 -0.139234 0.340651 3.86945 -0.14471 -0.513451 6.84816 0.994361 1.40294 6.34533 0.913452 56.4592 -1.30815 -0.513807 112.168 14.7681 4.90783 1.69657e-006 -2.42126e-007 -3.55211e-006 12.6702 6.94865 -1.31305 -1.6755e-006 -4.01396e-006 -3 8.02886 -4.95144 0.697684 -53.3364 -2.62491 1.07161 -109.41 16.1935 0.549834 -2.74211e-006 1.99354e-008 2.83193e-006 -11.9127 5.27783 1.05849 2.26359e-006 -2.28516e-006 3.00021 -8.02886 -4.95146 -0.697686 176.102 -2.94319 0.559033 -180 7.01518e-015 178.802 177.299 5.21856 179.745 3.9617e-006 7.92054e-006 0.0426486 -18.6067 67.7233 19.3049 8.13275 25.2329 -3.47935 -172.295 -1.31382 -0.253362 4.54188e-006 -4.6773e-006 -1.11384 0.393116 -8.30948 0.753915 -2.80947e-006 -6.37821e-006 -0.142515 19.061 69.7486 -21.0527 -8.13634 25.2327 3.48767 
51.8545 85.9693 16.2053 -2.04368 -4.3393 0.459779 0.174859 -0.893511 -0.0601993 0.340501 2.22159 -0.139537 0.342574 3.86666 -0.144932 -0.523084 6.85282 0.99784 1.41477 6.34366 0.914742 56.4561 -1.30233 -0.509743 112.175 14.7738 4.89119 1.69657e-006 -2.42126e-007 -3.55211e-006 12.6749 6.97404 -1.31652 -1.6755e-006 -4.01396e-006 -3 8.02886 -4.95144 0.697684 -53.3385 -2.61987 1.06832 -109.413 16.197 0.566634 -2.74211e-006 1.99354e-008 2.83193e-006 -11.921 5.31141 1.06291 2.26359e-006 -2.28516e-006 3.00021 -8.02886 -4.95146 -0.697686 176.101 -2.9387 0.559897 -180 7.01518e-015 178.802 177.297 5.21748 179.745 3.9617e-006 7.92054e-006 0.0426486 -18.6078 67.7246 19.3062 8.13275 25.2329 -3.47935 -172.289 -1.33953 -0.274909 4.54188e-006 -4.6773e-006 -1.11355 0.362671 -8.26525 0.748041 -2.80947e-006 -6.37821e-006 -0.137128 19.0087 69.706 -21.0117 -8.13634 25.2327 3.48767 
51.8543 85.9819 16.1593 -2.04425 -4.33557 0.462176 0.174416 -0.894624 -0.0603927 0.342441 2.21876 -0.139849 0.344509 3.86383 -0.14516 -0.532721 6.85756 1.00136 1.42663 6.34197 0.916078 56.4531 -1.29647 -0.505643 112.182 14.7794 4.87456 1.69657e-006 -2.42126e-007 -3.55211e-006 12.6797 6.99942 -1.31999 -1.6755e-006 -4.01396e-006 -3 8.02886 -4.95144 0.697684 -53.3405 -2.61482 1.06503 -109.415 16.2006 0.583335 -2.74211e-006 1.99354e-008 2.83193e-006 -11.9291 5.34484 1.06731 2.26359e-006 -2.28516e-006 3.00021 -8.02886 -4.95146 -0.697686 176.101 -2.93415 0.560744 -180 7.01518e-015 178.802 177.294 5.21639 179.745 3.9617e-006 7.92054e-006 0.0426486 -18.6089 67.7259 19.3075 8.13275 25.2329 -3.47935 -172.284 -1.36705 -0.297421 4.54188e-006 -4.6773e-006 -1.11327 0.330874 -8.21818 0.741838 -2.80947e-006 -6.37821e-006 -0.131463 18.9542 69.6611 -20.9687 -8.13634 25.2327 3.48767 
51.843 85.9821 16.1572 -2.04483 -4.33181 0.464569 0.17397 -0.895741 -0.0605877 0.344384 2.21592 -0.140163 0.346448 3.86099 -0.14539 -0.542358 6.86232 1.0049 1.4385 6.34028 0.917424 56.45 -1.29058 -0.501534 112.189 14.7849 4.85793 1.69657e-006 -2.42126e-007 -3.55211e-006 12.6844 7.02481 -1.32346 -1.6755e-006 -4.01396e-006 -3 8.02886 -4.95144 0.697684 -53.3425 -2.60977 1.06172 -109.417 16.2041 0.60001 -2.74211e-006 1.99354e-008 2.83193e-006 -11.9372 5.37823 1.07172 2.26359e-006 -2.28516e-006 3.00021 -8.02886 -4.95146 -0.697686 176.101 -2.92959 0.561588 -180 7.01518e-015 178.802 177.291 5.2153 179.745 3.9617e-006 7.92054e-006 0.0426486 -18.61 67.7273 19.3088 8.13275 25.2329 -3.47935 -172.278 -1.39503 -0.320174 4.54188e-006 -4.6773e-006 -1.11299 0.298745 -8.17039 0.735555 -2.80947e-006 -6.37821e-006 -0.125728 18.8994 69.6157 -20.9255 -8.13634 25.2327 3.48767 
51.8463 85.9825 16.187 -2.04539 -4.32809 0.466969 0.17353 -0.89685 -0.0607797 0.346321 2.21311 -0.140473 0.34838 3.85817 -0.145617 -0.551995 6.86704 1.00841 1.45035 6.3386 0.918748 56.447 -1.28473 -0.497443 112.196 14.7905 4.8413 1.69657e-006 -2.42126e-007 -3.55211e-006 12.6892 7.05019 -1.32693 -1.6755e-006 -4.01396e-006 -3 8.02886 -4.95144 0.697684 -53.3445 -2.60473 1.05843 -109.42 16.2076 0.616737 -2.74211e-006 1.99354e-008 2.83193e-006 -11.9453 5.4117 1.07613 2.26359e-006 -2.28516e-006 3.00021 -8.02886 -4.95146 -0.697686 176.101 -2.92506 0.562439 -180 7.01518e-015 178.802 177.289 5.21421 179.746 3.9617e-006 7.92054e-006 0.0426486 -18.6111 67.7286 19.3101 8.13275 25.2329 -3.47935 -172.272 -1.4221 -0.342445 4.54188e-006 -4.6773e-006 -1.11271 0.267309 -8.12403 0.729438 -2.80947e-006 -6.37821e-006 -0.120133 18.8459 69.5714 -20.8835 -8.13634 25.2327 3.48767 
51.8591 85.9622 16.1803 -2.04593 -4.32445 0.46939 0.173105 -0.89794 -0.060964 0.348242 2.21033 -0.140771 0.350296 3.8554 -0.145835 -0.561629 6.87166 1.01187 1.46216 6.33694 0.920016 56.4439 -1.27894 -0.493397 112.203 14.7962 4.82465 1.69657e-006 -2.42126e-007 -3.55211e-006 12.6939 7.07559 -1.3304 -1.6755e-006 -4.01396e-006 -3 8.02886 -4.95144 0.697684 -53.3466 -2.59969 1.05515 -109.422 16.2112 0.63359 -2.74211e-006 1.99354e-008 2.83193e-006 -11.9536 5.44535 1.08056 2.26359e-006 -2.28516e-006 3.00021 -8.02886 -4.95146 -0.697686 176.101 -2.92059 0.563311 -180 7.01518e-015 178.802 177.286 5.21314 179.746 3.9617e-006 7.92054e-006 0.0426486 -18.6122 67.7299 19.3114 8.13275 25.2329 -3.47935 -172.266 -1.44689 -0.363514 4.54188e-006 -4.6773e-006 -1.11242 0.237584 -8.08122 0.723736 -2.80947e-006 -6.37821e-006 -0.114885 18.7955 69.5298 -20.8442 -8.13634 25.2327 3.48767 
51.8507 85.9815 16.1793 -2.04642 -4.32093 0.471841 0.172703 -0.898998 -0.0611361 0.350137 2.20764 -0.141051 0.352187 3.85271 -0.146041 -0.57126 6.87612 1.01524 1.47388 6.3353 0.921192 56.4409 -1.27326 -0.489424 112.21 14.802 4.80797 1.69657e-006 -2.42126e-007 -3.55211e-006 12.6987 7.10099 -1.33387 -1.6755e-006 -4.01396e-006 -3 8.02886 -4.95144 0.697684 -53.3487 -2.59468 1.05189 -109.424 16.2148 0.650646 -2.74211e-006 1.99354e-008 2.83193e-006 -11.9621 5.47928 1.08504 2.26359e-006 -2.28516e-006 3.00021 -8.02886 -4.95146 -0.697686 176.101 -2.91623 0.564216 -180 7.01518e-015 178.802 177.283 5.21211 179.746 3.9617e-006 7.92054e-006 0.0426486 -18.6132 67.7312 19.3126 8.13275 25.2329 -3.47935 -172.261 -1.46805 -0.382656 4.54188e-006 -4.6773e-006 -1.11209 0.210588 -8.04409 0.718695 -2.80947e-006 -6.37821e-006 -0.110194 18.75 69.4926 -20.8093 -8.13634 25.2327 3.48767 
51.8504 85.9794 16.1668 -2.04685 -4.31758 0.474335 0.172333 -0.900012 -0.0612915 0.351998 2.20506 -0.141306 0.354043 3.85013 -0.146229 -0.580886 6.88035 1.01848 1.4855 6.3337 0.922244 56.4379 -1.26774 -0.485549 112.217 14.808 4.79125 1.69657e-006 -2.42126e-007 -3.55211e-006 12.7034 7.12641 -1.33734 -1.6755e-006 -4.01396e-006 -3 8.02886 -4.95144 0.697684 -53.3509 -2.5897 1.04866 -109.426 16.2185 0.66798 -2.74211e-006 1.99354e-008 2.83193e-006 -11.9709 5.51362 1.08956 2.26359e-006 -2.28516e-006 3.00021 -8.02886 -4.95146 -0.697686 176.1 -2.91202 0.565167 -180 7.01518e-015 178.802 177.281 5.2111 179.746 3.9617e-006 7.92054e-006 0.0426486 -18.6142 67.7323 19.3137 8.13275 25.2329 -3.47935 -172.257 -1.48421 -0.399151 4.54188e-006 -4.6773e-006 -1.11173 0.18734 -8.01478 0.714561 -2.80947e-006 -6.37821e-006 -0.106269 18.711 69.4616 -20.7801 -8.13634 25.2327 3.48767 
51.8473 85.9804 16.1778 -2.04719 -4.31445 0.476884 0.172004 -0.900972 -0.0614256 0.353814 2.20262 -0.141528 0.355855 3.84768 -0.146394 -0.590504 6.88431 1.02158 1.49698 6.33215 0.923137 56.435 -1.2624 -0.4818 112.224 14.8142 4.77448 1.69657e-006 -2.42126e-007 -3.55211e-006 12.708 7.15185 -1.34079 -1.6755e-006 -4.01396e-006 -3 8.02886 -4.95144 0.697684 -53.3531 -2.58475 1.04546 -109.428 16.2223 0.685669 -2.74211e-006 1.99354e-008 2.83193e-006 -11.98 5.54847 1.09415 2.26359e-006 -2.28516e-006 3.00021 -8.02886 -4.95146 -0.697686 176.1 -2.908 0.566176 -180 7.01518e-015 178.802 177.278 5.21015 179.746 3.9617e-006 7.92054e-006 0.0426486 -18.6151 67.7334 19.3147 8.13275 25.2329 -3.47935 -172.253 -1.494 -0.412274 4.54188e-006 -4.6773e-006 -1.11132 0.168857 -7.9954 0.711583 -2.80947e-006 -6.37821e-006 -0.103318 18.6802 69.4383 -20.7582 -8.13634 25.2327 3.48767 
51.8586 85.9548 16.1827 -2.04743 -4.31159 0.479498 0.171726 -0.901865 -0.0615338 0.355576 2.20034 -0.141712 0.357614 3.84541 -0.146532 -0.600114 6.88792 1.02448 1.50829 6.33066 0.923837 56.4321 -1.2573 -0.478205 112.23 14.8206 4.75765 1.69657e-006 -2.42126e-007 -3.55211e-006 12.7127 7.17732 -1.34425 -1.6755e-006 -4.01396e-006 -3 8.02886 -4.95144 0.697684 -53.3555 -2.57985 1.04231 -109.43 16.2261 0.703787 -2.74211e-006 1.99354e-008 2.83193e-006 -11.9896 5.58394 1.09882 2.26359e-006 -2.28516e-006 3.00021 -8.02886 -4.95146 -0.697686 176.1 -2.90421 0.567255 -180 7.01518e-015 178.802 177.275 5.20927 179.747 3.9617e-006 7.92054e-006 0.0426486 -18.6159 67.7344 19.3156 8.13275 25.2329 -3.47935 -172.25 -1.49606 -0.421304 4.54188e-006 -4.6773e-006 -1.11085 0.156155 -7.98811 0.710005 -2.80947e-006 -6.37821e-006 -0.10155 18.6593 69.4244 -20.745 -8.13634 25.2327 3.48767 
51.8554 85.979 16.1766 -2.04755 -4.30904 0.482191 0.171506 -0.90268 -0.0616116 0.357275 2.19826 -0.141851 0.359309 3.84333 -0.146638 -0.609713 6.89112 1.02716 1.51941 6.32925 0.924311 56.4292 -1.25247 -0.474789 112.237 14.8274 4.74075 1.69657e-006 -2.42126e-007 -3.55211e-006 12.7173 7.20281 -1.34769 -1.6755e-006 -4.01396e-006 -3 8.02886 -4.95144 0.697684 -53.3581 -2.57501 1.03922 -109.431 16.2301 0.722411 -2.74211e-006 1.99354e-008 2.83193e-006 -11.9997 5.62013 1.10358 2.26359e-006 -2.28516e-006 3.00021 -8.02886 -4.95146 -0.697686 176.1 -2.90068 0.568416 -180 7.01518e-015 178.802 177.273 5.20845 179.747 3.9617e-006 7.92054e-006 0.0426486 -18.6166 67.7353 19.3163 8.13275 25.2329 -3.47935 -172.248 -1.48902 -0.425518 4.54188e-006 -4.6773e-006 -1.11031 0.150252 -7.99502 0.710076 -2.80947e-006 -6.37821e-006 -0.101175 18.6501 69.4215 -20.7421 -8.13634 25.2327 3.48767 
